<svg width="565" height="566" viewBox="0 0 565 566" fill="none" xmlns="http://www.w3.org/2000/svg">
<ellipse cx="282.5" cy="283" rx="282.5" ry="283" fill="#1F2337"/>
<path fill-rule="evenodd" clip-rule="evenodd" d="M228 136H365.002C411.151 136 448.563 173.412 448.563 219.562C448.563 247.487 434.865 272.213 413.822 287.386L228 136ZM472 369.973L332.452 251.315H254.74V380L302.576 297.524L377.576 369.973H472Z" fill="white"/>
<path d="M58.88 304H53.6V258.416H58.88V266.952H59.056C60.5227 263.315 62.4 260.792 64.688 259.384C67.0347 257.917 70.1147 257.184 73.928 257.184V262.904C70.936 262.845 68.472 263.315 66.536 264.312C64.6 265.309 63.0453 266.659 61.872 268.36C60.7573 270.061 59.9653 272.085 59.496 274.432C59.0853 276.72 58.88 279.125 58.88 281.648V304ZM109.694 278.04C109.694 275.811 109.371 273.728 108.726 271.792C108.139 269.797 107.23 268.096 105.998 266.688C104.824 265.221 103.328 264.077 101.51 263.256C99.6911 262.376 97.6085 261.936 95.2618 261.936C92.9151 261.936 90.8325 262.376 89.0138 263.256C87.2538 264.136 85.7285 265.309 84.4378 266.776C83.2058 268.243 82.2085 269.944 81.4458 271.88C80.6831 273.816 80.1845 275.869 79.9498 278.04H109.694ZM79.9498 282.44C79.9498 284.904 80.2725 287.251 80.9178 289.48C81.5631 291.651 82.5018 293.557 83.7338 295.2C85.0245 296.784 86.6378 298.075 88.5738 299.072C90.5098 300.011 92.7391 300.48 95.2618 300.48C98.7231 300.48 101.686 299.571 104.15 297.752C106.614 295.933 108.256 293.352 109.078 290.008H114.974C114.328 292.179 113.478 294.203 112.422 296.08C111.366 297.899 110.046 299.512 108.462 300.92C106.878 302.269 105 303.325 102.83 304.088C100.659 304.851 98.1365 305.232 95.2618 305.232C91.6245 305.232 88.4858 304.616 85.8458 303.384C83.2058 302.152 81.0351 300.48 79.3338 298.368C77.6325 296.197 76.3711 293.675 75.5498 290.8C74.7285 287.867 74.3178 284.728 74.3178 281.384C74.3178 278.04 74.7871 274.901 75.7258 271.968C76.7231 269.035 78.1018 266.483 79.8618 264.312C81.6805 262.083 83.8805 260.352 86.4618 259.12C89.0431 257.829 91.9765 257.184 95.2618 257.184C101.539 257.184 106.467 259.355 110.046 263.696C113.624 267.979 115.384 274.227 115.326 282.44H79.9498ZM126.472 304H121.192V258.416H126.472V264.752C128.584 262.523 130.755 260.704 132.984 259.296C135.272 257.888 138 257.184 141.168 257.184C143.984 257.184 146.595 257.683 149 258.68C151.406 259.619 153.43 261.291 155.072 263.696C156.187 265.339 156.832 267.04 157.008 268.8C157.243 270.501 157.36 272.291 157.36 274.168V304H152.08V274.256C152.08 270.149 151.171 267.069 149.352 265.016C147.534 262.963 144.512 261.936 140.288 261.936C138.646 261.936 137.15 262.2 135.8 262.728C134.451 263.197 133.219 263.843 132.104 264.664C131.048 265.485 130.139 266.424 129.376 267.48C128.614 268.536 128.027 269.651 127.616 270.824C127.088 272.291 126.766 273.699 126.648 275.048C126.531 276.397 126.472 277.864 126.472 279.448V304ZM181.707 304.176C181.061 304.293 180.211 304.499 179.155 304.792C178.099 305.085 176.925 305.232 175.635 305.232C172.995 305.232 170.971 304.587 169.563 303.296C168.213 301.947 167.539 299.571 167.539 296.168V262.816H161.115V258.416H167.539V245.744H172.819V258.416H181.355V262.816H172.819V294.056C172.819 295.171 172.848 296.139 172.907 296.96C172.965 297.781 173.141 298.456 173.435 298.984C173.728 299.512 174.168 299.893 174.755 300.128C175.4 300.363 176.28 300.48 177.395 300.48C178.099 300.48 178.803 300.421 179.507 300.304C180.269 300.187 181.003 300.04 181.707 299.864V304.176ZM235.707 280.064C233.478 281.003 231.219 281.619 228.931 281.912C226.643 282.205 224.355 282.44 222.067 282.616C218.019 282.909 214.851 283.819 212.563 285.344C210.334 286.869 209.219 289.187 209.219 292.296C209.219 293.704 209.483 294.936 210.011 295.992C210.598 296.989 211.331 297.84 212.211 298.544C213.15 299.189 214.206 299.688 215.379 300.04C216.611 300.333 217.843 300.48 219.075 300.48C221.187 300.48 223.24 300.216 225.235 299.688C227.23 299.16 228.99 298.368 230.515 297.312C232.099 296.197 233.36 294.819 234.299 293.176C235.238 291.475 235.707 289.48 235.707 287.192V280.064ZM226.819 277.424C227.816 277.307 228.99 277.131 230.339 276.896C231.747 276.661 232.891 276.339 233.771 275.928C234.651 275.517 235.179 274.843 235.355 273.904C235.59 272.907 235.707 271.997 235.707 271.176C235.707 268.477 234.827 266.277 233.067 264.576C231.366 262.816 228.462 261.936 224.355 261.936C222.536 261.936 220.864 262.112 219.339 262.464C217.814 262.757 216.464 263.315 215.291 264.136C214.176 264.899 213.238 265.955 212.475 267.304C211.771 268.595 211.302 270.237 211.067 272.232H205.699C205.875 269.533 206.491 267.245 207.547 265.368C208.603 263.432 209.952 261.877 211.595 260.704C213.296 259.472 215.232 258.592 217.403 258.064C219.632 257.477 221.979 257.184 224.443 257.184C226.731 257.184 228.872 257.448 230.867 257.976C232.92 258.445 234.68 259.237 236.147 260.352C237.672 261.408 238.846 262.845 239.667 264.664C240.547 266.483 240.987 268.712 240.987 271.352V296.168C240.987 298.221 241.339 299.541 242.043 300.128C242.806 300.656 244.302 300.509 246.531 299.688V303.824C246.12 303.941 245.504 304.117 244.683 304.352C243.92 304.587 243.158 304.704 242.395 304.704C241.574 304.704 240.782 304.616 240.019 304.44C239.139 304.323 238.435 304.059 237.907 303.648C237.379 303.179 236.939 302.651 236.587 302.064C236.294 301.419 236.088 300.744 235.971 300.04C235.854 299.277 235.795 298.485 235.795 297.664C233.566 300.128 231.014 302.005 228.139 303.296C225.264 304.587 222.155 305.232 218.811 305.232C216.816 305.232 214.88 304.968 213.003 304.44C211.184 303.912 209.571 303.091 208.163 301.976C206.755 300.861 205.64 299.512 204.819 297.928C203.998 296.285 203.587 294.349 203.587 292.12C203.587 284.376 208.896 279.8 219.515 278.392L226.819 277.424ZM48.76 332.816V328.416H55.536V321.2C55.536 317.563 56.2693 314.688 57.736 312.576C59.2027 310.464 61.696 309.408 65.216 309.408C66.0373 309.408 66.8 309.437 67.504 309.496C68.208 309.555 68.912 309.643 69.616 309.76V314.6C68.4427 314.307 67.3867 314.16 66.448 314.16C65.0987 314.16 64.0427 314.424 63.28 314.952C62.5173 315.421 61.96 316.067 61.608 316.888C61.256 317.709 61.0213 318.648 60.904 319.704C60.8453 320.701 60.816 321.728 60.816 322.784V328.416H69.616V332.816H60.816V374H55.536V332.816H48.76ZM78.9722 374H73.6922V328.416H78.9722V336.952H79.1482C80.6149 333.315 82.4922 330.792 84.7802 329.384C87.1269 327.917 90.2069 327.184 94.0202 327.184V332.904C91.0282 332.845 88.5642 333.315 86.6282 334.312C84.6922 335.309 83.1375 336.659 81.9642 338.36C80.8495 340.061 80.0575 342.085 79.5882 344.432C79.1775 346.72 78.9722 349.125 78.9722 351.648V374ZM97.578 374V328.416H102.858V374H97.578ZM97.314 318.472V310.64H103.122V318.472H97.314ZM144.894 348.04C144.894 345.811 144.571 343.728 143.926 341.792C143.339 339.797 142.43 338.096 141.198 336.688C140.024 335.221 138.528 334.077 136.71 333.256C134.891 332.376 132.808 331.936 130.462 331.936C128.115 331.936 126.032 332.376 124.214 333.256C122.454 334.136 120.928 335.309 119.638 336.776C118.406 338.243 117.408 339.944 116.646 341.88C115.883 343.816 115.384 345.869 115.15 348.04H144.894ZM115.15 352.44C115.15 354.904 115.472 357.251 116.118 359.48C116.763 361.651 117.702 363.557 118.934 365.2C120.224 366.784 121.838 368.075 123.774 369.072C125.71 370.011 127.939 370.48 130.462 370.48C133.923 370.48 136.886 369.571 139.35 367.752C141.814 365.933 143.456 363.352 144.278 360.008H150.174C149.528 362.179 148.678 364.203 147.622 366.08C146.566 367.899 145.246 369.512 143.662 370.92C142.078 372.269 140.2 373.325 138.03 374.088C135.859 374.851 133.336 375.232 130.462 375.232C126.824 375.232 123.686 374.616 121.046 373.384C118.406 372.152 116.235 370.48 114.534 368.368C112.832 366.197 111.571 363.675 110.75 360.8C109.928 357.867 109.518 354.728 109.518 351.384C109.518 348.04 109.987 344.901 110.926 341.968C111.923 339.035 113.302 336.483 115.062 334.312C116.88 332.083 119.08 330.352 121.662 329.12C124.243 327.829 127.176 327.184 130.462 327.184C136.739 327.184 141.667 329.355 145.246 333.696C148.824 337.979 150.584 344.227 150.526 352.44H115.15ZM161.672 374H156.392V328.416H161.672V334.752C163.784 332.523 165.955 330.704 168.184 329.296C170.472 327.888 173.2 327.184 176.368 327.184C179.184 327.184 181.795 327.683 184.2 328.68C186.606 329.619 188.63 331.291 190.272 333.696C191.387 335.339 192.032 337.04 192.208 338.8C192.443 340.501 192.56 342.291 192.56 344.168V374H187.28V344.256C187.28 340.149 186.371 337.069 184.552 335.016C182.734 332.963 179.712 331.936 175.488 331.936C173.846 331.936 172.35 332.2 171 332.728C169.651 333.197 168.419 333.843 167.304 334.664C166.248 335.485 165.339 336.424 164.576 337.48C163.814 338.536 163.227 339.651 162.816 340.824C162.288 342.291 161.966 343.699 161.848 345.048C161.731 346.397 161.672 347.864 161.672 349.448V374ZM236.091 351.032C236.091 348.451 235.739 346.016 235.035 343.728C234.331 341.381 233.304 339.357 231.955 337.656C230.664 335.896 229.051 334.517 227.115 333.52C225.237 332.464 223.096 331.936 220.691 331.936C217.933 331.936 215.557 332.493 213.563 333.608C211.568 334.664 209.925 336.131 208.635 338.008C207.344 339.885 206.405 342.085 205.819 344.608C205.232 347.072 204.997 349.741 205.115 352.616C205.115 355.491 205.496 358.043 206.259 360.272C207.08 362.443 208.195 364.291 209.603 365.816C211.011 367.341 212.653 368.515 214.531 369.336C216.408 370.099 218.461 370.48 220.691 370.48C223.155 370.48 225.355 369.981 227.291 368.984C229.227 367.987 230.84 366.637 232.131 364.936C233.421 363.176 234.389 361.123 235.035 358.776C235.739 356.371 236.091 353.789 236.091 351.032ZM236.091 310.64H241.371V374H236.091V365.992H235.915C235.152 367.517 234.155 368.867 232.923 370.04C231.749 371.155 230.429 372.093 228.963 372.856C227.555 373.619 226.088 374.205 224.563 374.616C223.037 375.027 221.541 375.232 220.075 375.232C216.379 375.232 213.24 374.616 210.659 373.384C208.077 372.152 205.936 370.48 204.235 368.368C202.592 366.197 201.389 363.645 200.627 360.712C199.864 357.779 199.483 354.64 199.483 351.296C199.483 348.128 199.893 345.077 200.715 342.144C201.536 339.211 202.768 336.659 204.411 334.488C206.112 332.259 208.224 330.499 210.747 329.208C213.328 327.859 216.349 327.184 219.811 327.184C223.037 327.184 226.117 327.917 229.051 329.384C232.043 330.792 234.389 332.904 236.091 335.72V310.64Z" fill="white"/>
</svg>
